<?xml version="1.0" encoding="UTF-8" standalone="no"?>
<!DOCTYPE svg PUBLIC "-//W3C//DTD SVG 1.1//EN" "http://www.w3.org/Graphics/SVG/1.1/DTD/svg11.dtd">
<svg width="100%" height="100%" viewBox="0 0 154 15" version="1.1" xmlns="http://www.w3.org/2000/svg" xmlns:xlink="http://www.w3.org/1999/xlink" xml:space="preserve" xmlns:serif="http://www.serif.com/" style="fill-rule:evenodd;clip-rule:evenodd;stroke-linejoin:round;stroke-miterlimit:2;">
    <g transform="matrix(1,0,0,1,-295.546,-334.318)">
        <g transform="matrix(14,0,0,14,295.042,344.958)">
            <path d="M0.143,-0.609C0.129,-0.609 0.117,-0.615 0.106,-0.626C0.095,-0.638 0.09,-0.652 0.09,-0.668C0.09,-0.684 0.096,-0.698 0.107,-0.71C0.117,-0.722 0.13,-0.728 0.144,-0.728C0.159,-0.728 0.172,-0.722 0.183,-0.711C0.193,-0.699 0.198,-0.685 0.198,-0.668C0.198,-0.652 0.193,-0.638 0.182,-0.626C0.171,-0.615 0.158,-0.609 0.143,-0.609ZM0.044,-0.03C0.063,-0.03 0.077,-0.035 0.086,-0.045C0.094,-0.054 0.099,-0.067 0.101,-0.082C0.102,-0.097 0.103,-0.12 0.103,-0.152L0.103,-0.38C0.103,-0.399 0.104,-0.421 0.107,-0.445L0.036,-0.441L0.036,-0.483C0.075,-0.483 0.103,-0.485 0.121,-0.49C0.138,-0.495 0.151,-0.501 0.16,-0.51L0.189,-0.51L0.189,-0.106C0.189,-0.076 0.188,-0.053 0.185,-0.038L0.248,-0.041L0.248,-0L0.044,-0L0.044,-0.03Z" style="fill:rgb(254,130,66);fill-rule:nonzero;"/>
        </g>
        <g transform="matrix(14,0,0,14,298.976,344.958)">
            <path d="M0.044,-0.03C0.063,-0.03 0.077,-0.035 0.086,-0.045C0.094,-0.054 0.099,-0.066 0.1,-0.081C0.101,-0.095 0.102,-0.119 0.103,-0.152L0.104,-0.38C0.104,-0.408 0.105,-0.43 0.108,-0.445L0.037,-0.441L0.037,-0.483C0.076,-0.483 0.103,-0.485 0.118,-0.49C0.133,-0.494 0.145,-0.501 0.155,-0.51L0.184,-0.51C0.185,-0.497 0.187,-0.477 0.188,-0.449C0.211,-0.469 0.236,-0.485 0.266,-0.498C0.295,-0.51 0.323,-0.516 0.351,-0.516C0.409,-0.516 0.451,-0.498 0.478,-0.462C0.505,-0.425 0.518,-0.369 0.518,-0.292L0.518,-0.106C0.518,-0.076 0.517,-0.053 0.514,-0.038L0.577,-0.041L0.577,-0L0.373,-0L0.373,-0.03C0.392,-0.03 0.406,-0.035 0.414,-0.045C0.423,-0.054 0.428,-0.067 0.43,-0.082C0.431,-0.097 0.432,-0.12 0.432,-0.152L0.432,-0.292C0.431,-0.349 0.422,-0.393 0.404,-0.422C0.386,-0.451 0.358,-0.465 0.319,-0.465C0.295,-0.465 0.271,-0.459 0.248,-0.447C0.224,-0.435 0.204,-0.419 0.189,-0.4C0.19,-0.393 0.19,-0.38 0.19,-0.361L0.189,-0.106C0.189,-0.076 0.188,-0.053 0.185,-0.038L0.248,-0.041L0.248,-0L0.044,-0L0.044,-0.03Z" style="fill:rgb(254,130,66);fill-rule:nonzero;"/>
        </g>
        <g transform="matrix(14,0,0,14,307.474,344.958)">
            <path d="M0.049,-0.03C0.068,-0.03 0.082,-0.035 0.091,-0.045C0.099,-0.054 0.104,-0.067 0.106,-0.082C0.107,-0.097 0.108,-0.12 0.108,-0.152L0.107,-0.457L0.025,-0.455L0.025,-0.5L0.107,-0.5L0.107,-0.521C0.107,-0.598 0.121,-0.658 0.15,-0.699C0.178,-0.74 0.224,-0.76 0.287,-0.76C0.312,-0.76 0.337,-0.754 0.36,-0.741C0.383,-0.728 0.394,-0.71 0.394,-0.686C0.394,-0.673 0.39,-0.662 0.383,-0.654C0.375,-0.645 0.364,-0.641 0.351,-0.641C0.338,-0.641 0.328,-0.646 0.321,-0.655C0.314,-0.664 0.31,-0.673 0.31,-0.682C0.31,-0.691 0.312,-0.7 0.315,-0.707C0.31,-0.712 0.304,-0.717 0.296,-0.72C0.288,-0.723 0.28,-0.724 0.272,-0.724C0.243,-0.724 0.223,-0.713 0.211,-0.69C0.199,-0.667 0.193,-0.638 0.193,-0.605L0.193,-0.5L0.328,-0.5L0.328,-0.461L0.193,-0.458L0.194,-0.106C0.194,-0.076 0.193,-0.053 0.19,-0.038L0.253,-0.041L0.253,-0L0.049,-0L0.049,-0.03Z" style="fill:rgb(254,130,66);fill-rule:nonzero;"/>
        </g>
        <g transform="matrix(14,0,0,14,312.136,344.958)">
            <path d="M0.292,0.016C0.246,0.016 0.204,0.005 0.166,-0.017C0.127,-0.038 0.097,-0.068 0.075,-0.107C0.052,-0.146 0.041,-0.189 0.041,-0.238C0.041,-0.29 0.052,-0.337 0.074,-0.38C0.096,-0.422 0.126,-0.455 0.165,-0.48C0.203,-0.504 0.245,-0.516 0.292,-0.516C0.338,-0.516 0.38,-0.505 0.419,-0.483C0.458,-0.46 0.488,-0.43 0.51,-0.391C0.533,-0.352 0.544,-0.309 0.544,-0.262C0.544,-0.211 0.533,-0.165 0.51,-0.122C0.488,-0.079 0.458,-0.046 0.42,-0.021C0.381,0.004 0.339,0.016 0.292,0.016ZM0.3,-0.024C0.349,-0.024 0.385,-0.044 0.407,-0.084C0.431,-0.124 0.442,-0.174 0.442,-0.233C0.442,-0.3 0.43,-0.358 0.405,-0.406C0.38,-0.454 0.342,-0.478 0.292,-0.478C0.243,-0.478 0.205,-0.458 0.181,-0.417C0.156,-0.376 0.143,-0.326 0.143,-0.267C0.143,-0.224 0.149,-0.185 0.161,-0.148C0.172,-0.111 0.19,-0.081 0.214,-0.058C0.237,-0.035 0.266,-0.024 0.3,-0.024Z" style="fill:rgb(254,130,66);fill-rule:nonzero;"/>
        </g>
        <g transform="matrix(14,0,0,14,320.326,344.958)">
            <path d="M0.407,0.095C0.33,0.095 0.265,0.079 0.212,0.047C0.158,0.016 0.117,-0.027 0.091,-0.08C0.064,-0.133 0.05,-0.192 0.05,-0.257C0.05,-0.318 0.064,-0.378 0.092,-0.437C0.119,-0.495 0.161,-0.543 0.218,-0.581C0.274,-0.618 0.342,-0.637 0.423,-0.637C0.492,-0.637 0.552,-0.622 0.602,-0.591C0.652,-0.56 0.69,-0.521 0.716,-0.471C0.741,-0.423 0.754,-0.371 0.754,-0.318C0.754,-0.259 0.744,-0.21 0.723,-0.172C0.702,-0.134 0.677,-0.107 0.648,-0.09C0.619,-0.073 0.59,-0.064 0.563,-0.064C0.558,-0.064 0.552,-0.065 0.544,-0.066C0.517,-0.071 0.497,-0.081 0.486,-0.098C0.475,-0.115 0.469,-0.136 0.469,-0.161C0.469,-0.178 0.472,-0.206 0.479,-0.243L0.477,-0.243C0.455,-0.175 0.431,-0.129 0.406,-0.106C0.38,-0.082 0.353,-0.07 0.325,-0.07C0.294,-0.07 0.269,-0.082 0.249,-0.105C0.229,-0.128 0.219,-0.163 0.219,-0.209C0.219,-0.259 0.228,-0.305 0.247,-0.346C0.265,-0.387 0.292,-0.42 0.327,-0.445C0.362,-0.47 0.405,-0.482 0.454,-0.482C0.494,-0.482 0.53,-0.478 0.562,-0.469L0.552,-0.386C0.541,-0.309 0.535,-0.251 0.532,-0.214C0.531,-0.207 0.531,-0.196 0.531,-0.182C0.531,-0.133 0.543,-0.105 0.568,-0.1C0.571,-0.099 0.575,-0.099 0.58,-0.099C0.598,-0.099 0.615,-0.107 0.63,-0.123C0.646,-0.139 0.659,-0.162 0.669,-0.191C0.678,-0.22 0.683,-0.254 0.683,-0.292C0.683,-0.394 0.659,-0.47 0.611,-0.52C0.563,-0.57 0.5,-0.595 0.421,-0.595C0.408,-0.595 0.397,-0.595 0.39,-0.594C0.337,-0.59 0.29,-0.573 0.251,-0.542C0.211,-0.51 0.18,-0.47 0.159,-0.422C0.138,-0.373 0.127,-0.32 0.127,-0.263C0.127,-0.192 0.141,-0.133 0.17,-0.086C0.198,-0.039 0.235,-0.004 0.281,0.018C0.326,0.041 0.376,0.052 0.43,0.052C0.527,0.052 0.601,0.021 0.654,-0.041L0.678,-0.016C0.645,0.021 0.606,0.049 0.56,0.067C0.514,0.086 0.463,0.095 0.407,0.095ZM0.342,-0.108C0.365,-0.108 0.388,-0.126 0.411,-0.162C0.434,-0.197 0.454,-0.242 0.469,-0.295C0.484,-0.347 0.491,-0.397 0.491,-0.443C0.475,-0.449 0.454,-0.452 0.429,-0.452C0.4,-0.452 0.374,-0.44 0.353,-0.417C0.332,-0.394 0.316,-0.364 0.305,-0.328C0.294,-0.291 0.289,-0.255 0.289,-0.218C0.289,-0.184 0.294,-0.157 0.303,-0.138C0.312,-0.118 0.325,-0.108 0.342,-0.108Z" style="fill:rgb(254,130,66);fill-rule:nonzero;"/>
        </g>
        <g transform="matrix(14,0,0,14,331.47,344.958)">
            <path d="M0.143,-0.609C0.129,-0.609 0.117,-0.615 0.106,-0.626C0.095,-0.638 0.09,-0.652 0.09,-0.668C0.09,-0.684 0.096,-0.698 0.107,-0.71C0.117,-0.722 0.13,-0.728 0.144,-0.728C0.159,-0.728 0.172,-0.722 0.183,-0.711C0.193,-0.699 0.198,-0.685 0.198,-0.668C0.198,-0.652 0.193,-0.638 0.182,-0.626C0.171,-0.615 0.158,-0.609 0.143,-0.609ZM0.044,-0.03C0.063,-0.03 0.077,-0.035 0.086,-0.045C0.094,-0.054 0.099,-0.067 0.101,-0.082C0.102,-0.097 0.103,-0.12 0.103,-0.152L0.103,-0.38C0.103,-0.399 0.104,-0.421 0.107,-0.445L0.036,-0.441L0.036,-0.483C0.075,-0.483 0.103,-0.485 0.121,-0.49C0.138,-0.495 0.151,-0.501 0.16,-0.51L0.189,-0.51L0.189,-0.106C0.189,-0.076 0.188,-0.053 0.185,-0.038L0.248,-0.041L0.248,-0L0.044,-0L0.044,-0.03Z" style="fill:rgb(254,130,66);fill-rule:nonzero;"/>
        </g>
        <g transform="matrix(14,0,0,14,335.404,344.958)">
            <path d="M0.044,-0.03C0.063,-0.03 0.077,-0.035 0.086,-0.045C0.094,-0.054 0.099,-0.066 0.1,-0.081C0.101,-0.095 0.102,-0.119 0.103,-0.152L0.104,-0.38C0.104,-0.408 0.105,-0.43 0.108,-0.445L0.037,-0.441L0.037,-0.483C0.076,-0.483 0.103,-0.485 0.118,-0.49C0.133,-0.494 0.145,-0.501 0.155,-0.51L0.184,-0.51C0.185,-0.497 0.187,-0.477 0.188,-0.449C0.211,-0.469 0.236,-0.485 0.266,-0.498C0.295,-0.51 0.323,-0.516 0.351,-0.516C0.409,-0.516 0.451,-0.498 0.478,-0.462C0.505,-0.425 0.518,-0.369 0.518,-0.292L0.518,-0.106C0.518,-0.076 0.517,-0.053 0.514,-0.038L0.577,-0.041L0.577,-0L0.373,-0L0.373,-0.03C0.392,-0.03 0.406,-0.035 0.414,-0.045C0.423,-0.054 0.428,-0.067 0.43,-0.082C0.431,-0.097 0.432,-0.12 0.432,-0.152L0.432,-0.292C0.431,-0.349 0.422,-0.393 0.404,-0.422C0.386,-0.451 0.358,-0.465 0.319,-0.465C0.295,-0.465 0.271,-0.459 0.248,-0.447C0.224,-0.435 0.204,-0.419 0.189,-0.4C0.19,-0.393 0.19,-0.38 0.19,-0.361L0.189,-0.106C0.189,-0.076 0.188,-0.053 0.185,-0.038L0.248,-0.041L0.248,-0L0.044,-0L0.044,-0.03Z" style="fill:rgb(254,130,66);fill-rule:nonzero;"/>
        </g>
        <g transform="matrix(14,0,0,14,343.902,344.958)">
            <path d="M0.285,0.271C0.228,0.271 0.18,0.265 0.143,0.252C0.106,0.239 0.078,0.223 0.061,0.202C0.044,0.181 0.035,0.159 0.035,0.136C0.035,0.108 0.044,0.083 0.063,0.062C0.082,0.041 0.103,0.026 0.127,0.016C0.104,0.009 0.087,-0.001 0.076,-0.014C0.064,-0.027 0.058,-0.043 0.058,-0.063C0.058,-0.087 0.068,-0.109 0.086,-0.129C0.106,-0.149 0.129,-0.161 0.158,-0.166C0.127,-0.181 0.102,-0.201 0.084,-0.228C0.066,-0.254 0.057,-0.284 0.057,-0.318C0.057,-0.357 0.067,-0.391 0.087,-0.421C0.108,-0.451 0.134,-0.474 0.167,-0.491C0.199,-0.508 0.233,-0.516 0.268,-0.516C0.313,-0.516 0.356,-0.504 0.395,-0.479C0.405,-0.508 0.421,-0.531 0.444,-0.549C0.466,-0.567 0.49,-0.576 0.516,-0.576C0.533,-0.576 0.546,-0.572 0.555,-0.563C0.564,-0.554 0.569,-0.541 0.569,-0.526C0.569,-0.517 0.566,-0.507 0.559,-0.499C0.552,-0.49 0.541,-0.485 0.528,-0.485C0.517,-0.485 0.507,-0.488 0.499,-0.495C0.491,-0.502 0.486,-0.51 0.484,-0.52C0.468,-0.518 0.455,-0.511 0.446,-0.499C0.437,-0.486 0.43,-0.471 0.426,-0.454C0.443,-0.439 0.456,-0.421 0.465,-0.4C0.474,-0.379 0.479,-0.358 0.479,-0.335C0.479,-0.298 0.469,-0.265 0.45,-0.236C0.431,-0.207 0.405,-0.184 0.373,-0.167C0.34,-0.15 0.305,-0.142 0.268,-0.142C0.259,-0.142 0.248,-0.143 0.235,-0.144C0.225,-0.146 0.214,-0.147 0.201,-0.147C0.179,-0.147 0.161,-0.142 0.146,-0.133C0.131,-0.123 0.123,-0.111 0.123,-0.097C0.123,-0.078 0.135,-0.065 0.16,-0.059C0.184,-0.052 0.225,-0.048 0.284,-0.046C0.366,-0.042 0.428,-0.029 0.469,-0.007C0.509,0.016 0.53,0.053 0.53,0.104C0.53,0.138 0.518,0.168 0.495,0.193C0.471,0.218 0.44,0.238 0.403,0.251C0.365,0.264 0.326,0.271 0.285,0.271ZM0.271,-0.178C0.307,-0.178 0.335,-0.191 0.354,-0.216C0.373,-0.241 0.382,-0.274 0.382,-0.315C0.382,-0.362 0.372,-0.401 0.352,-0.433C0.331,-0.465 0.303,-0.481 0.266,-0.481C0.231,-0.481 0.203,-0.468 0.183,-0.442C0.163,-0.415 0.153,-0.381 0.153,-0.34C0.153,-0.291 0.164,-0.252 0.185,-0.223C0.205,-0.193 0.234,-0.178 0.271,-0.178ZM0.284,0.232C0.321,0.232 0.353,0.227 0.381,0.217C0.408,0.208 0.429,0.195 0.444,0.178C0.459,0.162 0.466,0.144 0.466,0.125C0.466,0.091 0.45,0.068 0.418,0.055C0.385,0.042 0.337,0.035 0.274,0.033C0.232,0.032 0.198,0.029 0.171,0.025C0.153,0.037 0.139,0.052 0.129,0.069C0.119,0.086 0.114,0.105 0.114,0.124C0.114,0.157 0.13,0.183 0.161,0.202C0.192,0.222 0.233,0.232 0.284,0.232Z" style="fill:rgb(254,130,66);fill-rule:nonzero;"/>
        </g>
        <g transform="matrix(14,0,0,14,351.98,344.958)">
            <path d="M0.034,-0.03C0.053,-0.03 0.067,-0.035 0.076,-0.045C0.084,-0.054 0.089,-0.067 0.091,-0.082C0.092,-0.097 0.093,-0.12 0.093,-0.152L0.093,-0.625C0.093,-0.65 0.094,-0.672 0.096,-0.69L0.025,-0.686L0.025,-0.728C0.065,-0.728 0.094,-0.73 0.111,-0.735C0.128,-0.74 0.141,-0.746 0.15,-0.755L0.179,-0.755L0.18,-0.106C0.18,-0.08 0.178,-0.057 0.175,-0.038L0.238,-0.041L0.238,-0L0.034,-0L0.034,-0.03Z" style="fill:rgb(254,130,66);fill-rule:nonzero;"/>
        </g>
        <g transform="matrix(14,0,0,14,355.788,344.958)">
            <path d="M0.286,0.016C0.24,0.016 0.199,0.005 0.162,-0.017C0.125,-0.038 0.095,-0.069 0.074,-0.11C0.053,-0.15 0.042,-0.196 0.042,-0.249C0.042,-0.296 0.053,-0.34 0.074,-0.381C0.095,-0.422 0.125,-0.454 0.164,-0.479C0.202,-0.504 0.245,-0.516 0.294,-0.516C0.332,-0.516 0.366,-0.508 0.397,-0.491C0.428,-0.474 0.452,-0.45 0.47,-0.417C0.488,-0.384 0.497,-0.343 0.497,-0.295L0.145,-0.289C0.144,-0.209 0.158,-0.147 0.185,-0.102C0.212,-0.057 0.253,-0.035 0.31,-0.035C0.341,-0.035 0.372,-0.043 0.405,-0.059C0.437,-0.075 0.462,-0.095 0.479,-0.118L0.503,-0.098C0.478,-0.059 0.445,-0.031 0.405,-0.012C0.364,0.007 0.325,0.016 0.286,0.016ZM0.403,-0.331C0.403,-0.371 0.394,-0.405 0.376,-0.434C0.358,-0.463 0.331,-0.477 0.295,-0.477C0.212,-0.477 0.163,-0.428 0.148,-0.331L0.403,-0.331Z" style="fill:rgb(254,130,66);fill-rule:nonzero;"/>
        </g>
        <g transform="matrix(14,0,0,14,363.376,344.958)">
            <path d="M0.249,0.016C0.218,0.016 0.189,0.012 0.163,0.003C0.137,-0.005 0.115,-0.015 0.096,-0.028L0.1,0.007L0.058,0.007L0.052,-0.165L0.083,-0.165C0.084,-0.138 0.092,-0.113 0.106,-0.092C0.119,-0.071 0.137,-0.054 0.16,-0.042C0.182,-0.029 0.206,-0.023 0.231,-0.023C0.26,-0.023 0.285,-0.03 0.308,-0.043C0.33,-0.057 0.341,-0.077 0.341,-0.102C0.341,-0.121 0.336,-0.136 0.325,-0.149C0.314,-0.162 0.3,-0.172 0.283,-0.181C0.267,-0.189 0.244,-0.199 0.215,-0.21C0.18,-0.223 0.151,-0.236 0.13,-0.248C0.109,-0.259 0.09,-0.275 0.075,-0.295C0.06,-0.315 0.052,-0.34 0.052,-0.371C0.052,-0.393 0.057,-0.415 0.068,-0.437C0.079,-0.459 0.097,-0.478 0.122,-0.493C0.147,-0.508 0.181,-0.516 0.223,-0.516C0.244,-0.516 0.265,-0.513 0.286,-0.506C0.308,-0.499 0.328,-0.488 0.347,-0.473L0.345,-0.511L0.387,-0.511L0.387,-0.336L0.355,-0.336C0.353,-0.375 0.341,-0.408 0.32,-0.437C0.298,-0.465 0.267,-0.479 0.228,-0.479C0.198,-0.479 0.174,-0.471 0.157,-0.457C0.139,-0.442 0.13,-0.424 0.13,-0.403C0.13,-0.384 0.136,-0.367 0.148,-0.354C0.159,-0.341 0.174,-0.329 0.191,-0.32C0.208,-0.311 0.232,-0.3 0.261,-0.289C0.296,-0.275 0.324,-0.262 0.345,-0.25C0.366,-0.238 0.385,-0.222 0.4,-0.203C0.414,-0.183 0.422,-0.159 0.422,-0.131C0.422,-0.099 0.414,-0.072 0.398,-0.05C0.381,-0.028 0.36,-0.012 0.334,-0.001C0.307,0.01 0.279,0.016 0.249,0.016Z" style="fill:rgb(254,130,66);fill-rule:nonzero;"/>
        </g>
        <g transform="matrix(14,0,0,14,369.858,344.958)">
            <path d="M0.288,0.016C0.243,0.016 0.201,0.006 0.164,-0.015C0.126,-0.036 0.096,-0.065 0.074,-0.104C0.052,-0.143 0.041,-0.188 0.041,-0.241C0.041,-0.288 0.052,-0.332 0.075,-0.375C0.097,-0.417 0.128,-0.451 0.168,-0.477C0.207,-0.503 0.252,-0.516 0.302,-0.516C0.338,-0.516 0.37,-0.51 0.398,-0.499C0.426,-0.488 0.448,-0.473 0.464,-0.454C0.479,-0.435 0.487,-0.415 0.487,-0.393C0.487,-0.378 0.483,-0.365 0.474,-0.355C0.465,-0.345 0.453,-0.34 0.438,-0.34C0.423,-0.34 0.412,-0.345 0.405,-0.355C0.398,-0.364 0.394,-0.374 0.394,-0.385C0.394,-0.402 0.399,-0.415 0.409,-0.425C0.402,-0.446 0.388,-0.46 0.367,-0.468C0.345,-0.475 0.325,-0.479 0.304,-0.479C0.273,-0.479 0.246,-0.471 0.222,-0.454C0.197,-0.437 0.178,-0.413 0.164,-0.381C0.15,-0.349 0.143,-0.311 0.143,-0.266C0.143,-0.221 0.15,-0.182 0.165,-0.147C0.179,-0.112 0.199,-0.085 0.225,-0.066C0.251,-0.046 0.281,-0.036 0.315,-0.036C0.345,-0.036 0.375,-0.044 0.404,-0.061C0.433,-0.077 0.455,-0.097 0.472,-0.122L0.498,-0.102C0.473,-0.063 0.442,-0.034 0.403,-0.014C0.364,0.006 0.325,0.016 0.288,0.016Z" style="fill:rgb(254,130,66);fill-rule:nonzero;"/>
        </g>
        <g transform="matrix(14,0,0,14,377.236,344.958)">
            <path d="M0.292,0.016C0.246,0.016 0.204,0.005 0.166,-0.017C0.127,-0.038 0.097,-0.068 0.075,-0.107C0.052,-0.146 0.041,-0.189 0.041,-0.238C0.041,-0.29 0.052,-0.337 0.074,-0.38C0.096,-0.422 0.126,-0.455 0.165,-0.48C0.203,-0.504 0.245,-0.516 0.292,-0.516C0.338,-0.516 0.38,-0.505 0.419,-0.483C0.458,-0.46 0.488,-0.43 0.51,-0.391C0.533,-0.352 0.544,-0.309 0.544,-0.262C0.544,-0.211 0.533,-0.165 0.51,-0.122C0.488,-0.079 0.458,-0.046 0.42,-0.021C0.381,0.004 0.339,0.016 0.292,0.016ZM0.3,-0.024C0.349,-0.024 0.385,-0.044 0.407,-0.084C0.431,-0.124 0.442,-0.174 0.442,-0.233C0.442,-0.3 0.43,-0.358 0.405,-0.406C0.38,-0.454 0.342,-0.478 0.292,-0.478C0.243,-0.478 0.205,-0.458 0.181,-0.417C0.156,-0.376 0.143,-0.326 0.143,-0.267C0.143,-0.224 0.149,-0.185 0.161,-0.148C0.172,-0.111 0.19,-0.081 0.214,-0.058C0.237,-0.035 0.266,-0.024 0.3,-0.024Z" style="fill:rgb(254,130,66);fill-rule:nonzero;"/>
        </g>
        <g transform="matrix(14,0,0,14,385.426,344.958)">
            <path d="M0.044,-0.03C0.063,-0.03 0.077,-0.035 0.086,-0.045C0.094,-0.054 0.099,-0.066 0.1,-0.081C0.101,-0.095 0.102,-0.119 0.103,-0.152L0.104,-0.38C0.104,-0.408 0.105,-0.43 0.108,-0.445L0.037,-0.441L0.037,-0.483C0.076,-0.483 0.103,-0.485 0.118,-0.49C0.133,-0.494 0.145,-0.501 0.155,-0.51L0.184,-0.51C0.185,-0.497 0.187,-0.477 0.188,-0.449C0.211,-0.469 0.236,-0.485 0.266,-0.498C0.295,-0.51 0.323,-0.516 0.351,-0.516C0.409,-0.516 0.451,-0.498 0.478,-0.462C0.505,-0.425 0.518,-0.369 0.518,-0.292L0.518,-0.106C0.518,-0.076 0.517,-0.053 0.514,-0.038L0.577,-0.041L0.577,-0L0.373,-0L0.373,-0.03C0.392,-0.03 0.406,-0.035 0.414,-0.045C0.423,-0.054 0.428,-0.067 0.43,-0.082C0.431,-0.097 0.432,-0.12 0.432,-0.152L0.432,-0.292C0.431,-0.349 0.422,-0.393 0.404,-0.422C0.386,-0.451 0.358,-0.465 0.319,-0.465C0.295,-0.465 0.271,-0.459 0.248,-0.447C0.224,-0.435 0.204,-0.419 0.189,-0.4C0.19,-0.393 0.19,-0.38 0.19,-0.361L0.189,-0.106C0.189,-0.076 0.188,-0.053 0.185,-0.038L0.248,-0.041L0.248,-0L0.044,-0L0.044,-0.03Z" style="fill:rgb(254,130,66);fill-rule:nonzero;"/>
        </g>
        <g transform="matrix(14,0,0,14,393.924,344.958)">
            <path d="M0.288,0.016C0.243,0.016 0.201,0.006 0.164,-0.015C0.126,-0.036 0.096,-0.065 0.074,-0.104C0.052,-0.143 0.041,-0.188 0.041,-0.241C0.041,-0.288 0.052,-0.332 0.075,-0.375C0.097,-0.417 0.128,-0.451 0.168,-0.477C0.207,-0.503 0.252,-0.516 0.302,-0.516C0.338,-0.516 0.37,-0.51 0.398,-0.499C0.426,-0.488 0.448,-0.473 0.464,-0.454C0.479,-0.435 0.487,-0.415 0.487,-0.393C0.487,-0.378 0.483,-0.365 0.474,-0.355C0.465,-0.345 0.453,-0.34 0.438,-0.34C0.423,-0.34 0.412,-0.345 0.405,-0.355C0.398,-0.364 0.394,-0.374 0.394,-0.385C0.394,-0.402 0.399,-0.415 0.409,-0.425C0.402,-0.446 0.388,-0.46 0.367,-0.468C0.345,-0.475 0.325,-0.479 0.304,-0.479C0.273,-0.479 0.246,-0.471 0.222,-0.454C0.197,-0.437 0.178,-0.413 0.164,-0.381C0.15,-0.349 0.143,-0.311 0.143,-0.266C0.143,-0.221 0.15,-0.182 0.165,-0.147C0.179,-0.112 0.199,-0.085 0.225,-0.066C0.251,-0.046 0.281,-0.036 0.315,-0.036C0.345,-0.036 0.375,-0.044 0.404,-0.061C0.433,-0.077 0.455,-0.097 0.472,-0.122L0.498,-0.102C0.473,-0.063 0.442,-0.034 0.403,-0.014C0.364,0.006 0.325,0.016 0.288,0.016Z" style="fill:rgb(254,130,66);fill-rule:nonzero;"/>
        </g>
        <g transform="matrix(14,0,0,14,401.344,344.958)">
            <path d="M0.184,0.016C0.135,0.016 0.098,0.005 0.073,-0.017C0.047,-0.039 0.034,-0.068 0.034,-0.103C0.034,-0.142 0.05,-0.174 0.081,-0.201C0.112,-0.228 0.151,-0.248 0.198,-0.261C0.245,-0.274 0.292,-0.28 0.339,-0.279L0.339,-0.341C0.339,-0.384 0.333,-0.418 0.32,-0.443C0.307,-0.467 0.28,-0.479 0.239,-0.479C0.218,-0.479 0.199,-0.475 0.18,-0.466C0.161,-0.457 0.148,-0.444 0.139,-0.427C0.148,-0.418 0.152,-0.405 0.152,-0.389C0.152,-0.379 0.148,-0.37 0.141,-0.361C0.134,-0.352 0.123,-0.347 0.109,-0.347C0.095,-0.347 0.084,-0.352 0.076,-0.361C0.068,-0.37 0.064,-0.381 0.064,-0.396C0.064,-0.418 0.073,-0.438 0.09,-0.457C0.107,-0.475 0.13,-0.489 0.161,-0.5C0.191,-0.511 0.225,-0.516 0.262,-0.516C0.318,-0.516 0.359,-0.501 0.386,-0.471C0.413,-0.442 0.426,-0.395 0.425,-0.331L0.424,-0.106C0.424,-0.085 0.423,-0.062 0.42,-0.038L0.491,-0.042L0.491,-0L0.348,-0C0.346,-0.01 0.344,-0.029 0.341,-0.057C0.292,-0.008 0.24,0.016 0.184,0.016ZM0.207,-0.041C0.232,-0.041 0.255,-0.046 0.276,-0.056C0.297,-0.065 0.318,-0.08 0.339,-0.1C0.338,-0.11 0.338,-0.127 0.338,-0.151L0.339,-0.245C0.284,-0.243 0.236,-0.232 0.193,-0.212C0.15,-0.191 0.129,-0.16 0.129,-0.118C0.129,-0.093 0.136,-0.074 0.151,-0.061C0.166,-0.048 0.184,-0.041 0.207,-0.041Z" style="fill:rgb(254,130,66);fill-rule:nonzero;"/>
        </g>
        <g transform="matrix(14,0,0,14,408.568,344.958)">
            <path d="M0.044,-0.03C0.063,-0.03 0.077,-0.035 0.086,-0.045C0.094,-0.054 0.099,-0.067 0.101,-0.082C0.102,-0.097 0.103,-0.12 0.103,-0.152L0.103,-0.38C0.103,-0.408 0.104,-0.43 0.107,-0.445L0.036,-0.442L0.036,-0.483L0.067,-0.483C0.092,-0.483 0.111,-0.485 0.122,-0.49C0.133,-0.494 0.144,-0.501 0.154,-0.51L0.183,-0.51C0.186,-0.484 0.187,-0.451 0.188,-0.411C0.205,-0.438 0.229,-0.463 0.26,-0.484C0.291,-0.505 0.323,-0.516 0.356,-0.516C0.376,-0.516 0.393,-0.511 0.406,-0.5C0.419,-0.489 0.426,-0.474 0.426,-0.453C0.426,-0.442 0.422,-0.432 0.413,-0.421C0.405,-0.41 0.393,-0.405 0.378,-0.405C0.363,-0.405 0.351,-0.41 0.342,-0.422C0.333,-0.433 0.329,-0.446 0.331,-0.461C0.306,-0.462 0.28,-0.452 0.255,-0.432C0.229,-0.412 0.207,-0.385 0.189,-0.352L0.19,-0.106C0.19,-0.076 0.189,-0.053 0.186,-0.038L0.249,-0.041L0.249,-0L0.044,-0L0.044,-0.03Z" style="fill:rgb(254,130,66);fill-rule:nonzero;"/>
        </g>
        <g transform="matrix(14,0,0,14,414.574,344.958)">
            <path d="M0.034,-0.03C0.053,-0.03 0.067,-0.035 0.076,-0.045C0.084,-0.054 0.089,-0.067 0.091,-0.082C0.092,-0.097 0.093,-0.12 0.093,-0.152L0.093,-0.625C0.093,-0.65 0.094,-0.672 0.096,-0.69L0.025,-0.686L0.025,-0.728C0.065,-0.728 0.094,-0.73 0.111,-0.735C0.128,-0.74 0.141,-0.746 0.15,-0.755L0.179,-0.755L0.18,-0.106C0.18,-0.08 0.178,-0.057 0.175,-0.038L0.238,-0.041L0.238,-0L0.034,-0L0.034,-0.03Z" style="fill:rgb(254,130,66);fill-rule:nonzero;"/>
        </g>
        <g transform="matrix(14,0,0,14,418.382,344.958)">
            <path d="M0.122,0.016C0.106,0.016 0.092,0.01 0.081,-0.003C0.07,-0.015 0.064,-0.03 0.064,-0.048C0.064,-0.066 0.07,-0.081 0.082,-0.094C0.093,-0.107 0.107,-0.113 0.123,-0.113C0.14,-0.113 0.154,-0.107 0.165,-0.094C0.175,-0.081 0.181,-0.066 0.181,-0.048C0.181,-0.03 0.175,-0.015 0.164,-0.003C0.152,0.01 0.138,0.016 0.122,0.016Z" style="fill:rgb(254,130,66);fill-rule:nonzero;"/>
        </g>
        <g transform="matrix(14,0,0,14,421.826,344.958)">
            <path d="M0.288,0.016C0.243,0.016 0.201,0.006 0.164,-0.015C0.126,-0.036 0.096,-0.065 0.074,-0.104C0.052,-0.143 0.041,-0.188 0.041,-0.241C0.041,-0.288 0.052,-0.332 0.075,-0.375C0.097,-0.417 0.128,-0.451 0.168,-0.477C0.207,-0.503 0.252,-0.516 0.302,-0.516C0.338,-0.516 0.37,-0.51 0.398,-0.499C0.426,-0.488 0.448,-0.473 0.464,-0.454C0.479,-0.435 0.487,-0.415 0.487,-0.393C0.487,-0.378 0.483,-0.365 0.474,-0.355C0.465,-0.345 0.453,-0.34 0.438,-0.34C0.423,-0.34 0.412,-0.345 0.405,-0.355C0.398,-0.364 0.394,-0.374 0.394,-0.385C0.394,-0.402 0.399,-0.415 0.409,-0.425C0.402,-0.446 0.388,-0.46 0.367,-0.468C0.345,-0.475 0.325,-0.479 0.304,-0.479C0.273,-0.479 0.246,-0.471 0.222,-0.454C0.197,-0.437 0.178,-0.413 0.164,-0.381C0.15,-0.349 0.143,-0.311 0.143,-0.266C0.143,-0.221 0.15,-0.182 0.165,-0.147C0.179,-0.112 0.199,-0.085 0.225,-0.066C0.251,-0.046 0.281,-0.036 0.315,-0.036C0.345,-0.036 0.375,-0.044 0.404,-0.061C0.433,-0.077 0.455,-0.097 0.472,-0.122L0.498,-0.102C0.473,-0.063 0.442,-0.034 0.403,-0.014C0.364,0.006 0.325,0.016 0.288,0.016Z" style="fill:rgb(254,130,66);fill-rule:nonzero;"/>
        </g>
        <g transform="matrix(14,0,0,14,429.204,344.958)">
            <path d="M0.292,0.016C0.246,0.016 0.204,0.005 0.166,-0.017C0.127,-0.038 0.097,-0.068 0.075,-0.107C0.052,-0.146 0.041,-0.189 0.041,-0.238C0.041,-0.29 0.052,-0.337 0.074,-0.38C0.096,-0.422 0.126,-0.455 0.165,-0.48C0.203,-0.504 0.245,-0.516 0.292,-0.516C0.338,-0.516 0.38,-0.505 0.419,-0.483C0.458,-0.46 0.488,-0.43 0.51,-0.391C0.533,-0.352 0.544,-0.309 0.544,-0.262C0.544,-0.211 0.533,-0.165 0.51,-0.122C0.488,-0.079 0.458,-0.046 0.42,-0.021C0.381,0.004 0.339,0.016 0.292,0.016ZM0.3,-0.024C0.349,-0.024 0.385,-0.044 0.407,-0.084C0.431,-0.124 0.442,-0.174 0.442,-0.233C0.442,-0.3 0.43,-0.358 0.405,-0.406C0.38,-0.454 0.342,-0.478 0.292,-0.478C0.243,-0.478 0.205,-0.458 0.181,-0.417C0.156,-0.376 0.143,-0.326 0.143,-0.267C0.143,-0.224 0.149,-0.185 0.161,-0.148C0.172,-0.111 0.19,-0.081 0.214,-0.058C0.237,-0.035 0.266,-0.024 0.3,-0.024Z" style="fill:rgb(254,130,66);fill-rule:nonzero;"/>
        </g>
        <g transform="matrix(14,0,0,14,437.394,344.958)">
            <path d="M0.044,-0.03C0.063,-0.03 0.077,-0.035 0.086,-0.045C0.094,-0.054 0.099,-0.067 0.101,-0.082C0.102,-0.097 0.103,-0.12 0.103,-0.152L0.103,-0.38C0.103,-0.408 0.104,-0.43 0.107,-0.445L0.036,-0.441L0.036,-0.483C0.075,-0.483 0.102,-0.485 0.117,-0.49C0.132,-0.494 0.144,-0.501 0.154,-0.51L0.183,-0.51C0.184,-0.5 0.186,-0.482 0.187,-0.457C0.208,-0.475 0.231,-0.489 0.257,-0.5C0.283,-0.511 0.309,-0.516 0.334,-0.516C0.367,-0.516 0.395,-0.51 0.418,-0.499C0.441,-0.487 0.458,-0.47 0.471,-0.449C0.495,-0.468 0.522,-0.484 0.552,-0.497C0.581,-0.51 0.61,-0.516 0.637,-0.516C0.696,-0.516 0.739,-0.498 0.765,-0.463C0.793,-0.427 0.805,-0.37 0.804,-0.292L0.803,-0.106C0.803,-0.076 0.802,-0.053 0.799,-0.038L0.862,-0.041L0.862,-0L0.658,-0L0.658,-0.03C0.677,-0.03 0.691,-0.035 0.7,-0.045C0.708,-0.054 0.713,-0.067 0.715,-0.082C0.716,-0.097 0.717,-0.12 0.717,-0.152L0.717,-0.292C0.717,-0.349 0.708,-0.392 0.69,-0.421C0.672,-0.449 0.644,-0.463 0.605,-0.463C0.584,-0.463 0.564,-0.459 0.543,-0.45C0.522,-0.441 0.503,-0.429 0.487,-0.414C0.494,-0.393 0.497,-0.369 0.497,-0.341L0.495,-0.106C0.495,-0.076 0.494,-0.053 0.491,-0.038L0.554,-0.041L0.554,-0L0.35,-0L0.35,-0.03C0.369,-0.03 0.383,-0.035 0.392,-0.045C0.4,-0.054 0.405,-0.066 0.406,-0.081C0.407,-0.095 0.408,-0.119 0.409,-0.152L0.41,-0.292C0.411,-0.35 0.402,-0.393 0.385,-0.422C0.368,-0.451 0.34,-0.465 0.302,-0.465C0.281,-0.465 0.261,-0.461 0.241,-0.452C0.22,-0.443 0.203,-0.432 0.188,-0.417L0.189,-0.363L0.189,-0.106C0.189,-0.076 0.188,-0.053 0.185,-0.038L0.248,-0.041L0.248,-0L0.044,-0L0.044,-0.03Z" style="fill:rgb(254,130,66);fill-rule:nonzero;"/>
        </g>
    </g>
</svg>
