<?xml version="1.0" encoding="UTF-8" standalone="no"?>
<!DOCTYPE svg PUBLIC "-//W3C//DTD SVG 1.1//EN" "http://www.w3.org/Graphics/SVG/1.1/DTD/svg11.dtd">
<svg width="100%" height="100%" viewBox="0 0 646 435" version="1.1" xmlns="http://www.w3.org/2000/svg" xmlns:xlink="http://www.w3.org/1999/xlink" xml:space="preserve" xmlns:serif="http://www.serif.com/" style="fill-rule:evenodd;clip-rule:evenodd;stroke-linejoin:round;stroke-miterlimit:2;">
    <g transform="matrix(0.889117,0,0,0.889117,-7.30827,-157.268)">
        <g>
            <g transform="matrix(1.47437,0,0,1.47437,-108.448,-179.35)">
                <g transform="matrix(166.667,0,0,166.667,237.838,541.57)">
                    <path d="M0.58,-0.476C0.572,-0.534 0.552,-0.578 0.521,-0.609C0.49,-0.639 0.449,-0.654 0.399,-0.654C0.364,-0.654 0.332,-0.646 0.305,-0.63C0.277,-0.615 0.254,-0.594 0.234,-0.567C0.216,-0.54 0.201,-0.508 0.191,-0.472C0.181,-0.437 0.176,-0.399 0.176,-0.358C0.176,-0.299 0.186,-0.246 0.204,-0.201C0.224,-0.156 0.25,-0.12 0.284,-0.094C0.319,-0.068 0.359,-0.055 0.405,-0.055C0.448,-0.055 0.49,-0.066 0.532,-0.086C0.573,-0.108 0.608,-0.137 0.635,-0.176L0.676,-0.139C0.645,-0.096 0.611,-0.064 0.576,-0.042C0.541,-0.019 0.506,-0.004 0.472,0.004C0.439,0.012 0.408,0.016 0.381,0.016C0.33,0.016 0.283,0.007 0.242,-0.012C0.2,-0.03 0.164,-0.055 0.134,-0.087C0.103,-0.12 0.08,-0.158 0.064,-0.201C0.047,-0.244 0.039,-0.29 0.039,-0.34C0.039,-0.386 0.046,-0.431 0.061,-0.476C0.075,-0.521 0.097,-0.561 0.126,-0.597C0.155,-0.633 0.191,-0.662 0.235,-0.684C0.279,-0.705 0.33,-0.716 0.388,-0.716C0.417,-0.716 0.448,-0.712 0.48,-0.703C0.512,-0.694 0.542,-0.68 0.57,-0.663L0.566,-0.709L0.635,-0.709L0.635,-0.476L0.58,-0.476Z" style="fill:white;fill-rule:nonzero;"/>
                </g>
                <g transform="matrix(166.667,0,0,166.667,353.171,541.57)">
                    <path d="M0.329,-0C0.327,-0.01 0.326,-0.019 0.326,-0.025C0.325,-0.033 0.325,-0.041 0.324,-0.05C0.301,-0.027 0.277,-0.011 0.252,-0C0.226,0.011 0.199,0.016 0.172,0.016C0.127,0.016 0.092,0.004 0.068,-0.021C0.043,-0.046 0.031,-0.076 0.031,-0.112C0.031,-0.144 0.04,-0.171 0.057,-0.194C0.074,-0.216 0.097,-0.234 0.125,-0.249C0.153,-0.263 0.184,-0.274 0.218,-0.281C0.252,-0.289 0.286,-0.293 0.319,-0.294L0.319,-0.349C0.319,-0.368 0.317,-0.386 0.313,-0.403C0.308,-0.419 0.3,-0.432 0.289,-0.442C0.278,-0.451 0.261,-0.456 0.239,-0.456C0.224,-0.455 0.21,-0.452 0.195,-0.447C0.18,-0.441 0.168,-0.432 0.159,-0.42C0.164,-0.414 0.168,-0.407 0.169,-0.401C0.17,-0.394 0.171,-0.387 0.171,-0.382C0.171,-0.37 0.166,-0.358 0.157,-0.344C0.148,-0.332 0.133,-0.325 0.112,-0.326C0.094,-0.327 0.08,-0.333 0.07,-0.345C0.061,-0.357 0.056,-0.371 0.056,-0.388C0.056,-0.413 0.065,-0.436 0.084,-0.455C0.102,-0.473 0.127,-0.489 0.158,-0.5C0.189,-0.51 0.224,-0.516 0.263,-0.516C0.32,-0.516 0.364,-0.501 0.395,-0.471C0.426,-0.441 0.441,-0.393 0.44,-0.327L0.44,-0.264C0.44,-0.245 0.44,-0.226 0.44,-0.206C0.439,-0.188 0.439,-0.166 0.439,-0.143C0.439,-0.133 0.439,-0.121 0.438,-0.106C0.437,-0.091 0.436,-0.076 0.435,-0.061C0.447,-0.062 0.459,-0.063 0.471,-0.064C0.484,-0.064 0.494,-0.064 0.502,-0.065L0.502,-0L0.329,-0ZM0.318,-0.235C0.298,-0.234 0.278,-0.231 0.259,-0.226C0.24,-0.221 0.222,-0.214 0.207,-0.205C0.192,-0.196 0.18,-0.186 0.171,-0.172C0.162,-0.16 0.157,-0.145 0.158,-0.128C0.159,-0.107 0.165,-0.092 0.178,-0.083C0.191,-0.073 0.205,-0.068 0.222,-0.068C0.241,-0.068 0.259,-0.072 0.275,-0.08C0.29,-0.088 0.305,-0.099 0.318,-0.112L0.318,-0.235Z" style="fill:white;fill-rule:nonzero;"/>
                </g>
                <g transform="matrix(166.667,0,0,166.667,440.005,541.57)">
                    <path d="M0.042,-0.053C0.061,-0.053 0.075,-0.057 0.083,-0.066C0.091,-0.074 0.096,-0.086 0.098,-0.101C0.1,-0.116 0.101,-0.134 0.101,-0.153L0.101,-0.341C0.101,-0.353 0.101,-0.366 0.102,-0.379C0.103,-0.392 0.104,-0.406 0.105,-0.42C0.094,-0.419 0.081,-0.419 0.068,-0.419C0.055,-0.418 0.044,-0.418 0.035,-0.417L0.035,-0.481L0.072,-0.481C0.099,-0.481 0.121,-0.484 0.139,-0.491C0.157,-0.497 0.17,-0.503 0.177,-0.51L0.219,-0.51C0.22,-0.502 0.221,-0.489 0.222,-0.472C0.223,-0.455 0.223,-0.437 0.223,-0.42C0.238,-0.44 0.254,-0.457 0.271,-0.471C0.288,-0.486 0.305,-0.497 0.323,-0.504C0.34,-0.512 0.358,-0.516 0.377,-0.516C0.398,-0.516 0.417,-0.51 0.434,-0.498C0.45,-0.486 0.458,-0.467 0.458,-0.44C0.458,-0.431 0.456,-0.422 0.452,-0.412C0.447,-0.402 0.441,-0.394 0.432,-0.387C0.423,-0.38 0.41,-0.377 0.395,-0.377C0.381,-0.377 0.368,-0.382 0.356,-0.391C0.343,-0.4 0.337,-0.414 0.336,-0.434C0.322,-0.435 0.308,-0.43 0.293,-0.419C0.278,-0.408 0.264,-0.395 0.252,-0.38C0.24,-0.365 0.231,-0.349 0.224,-0.333L0.225,-0.143C0.225,-0.132 0.225,-0.119 0.224,-0.105C0.223,-0.09 0.222,-0.075 0.221,-0.061C0.232,-0.062 0.243,-0.063 0.255,-0.064C0.267,-0.064 0.277,-0.064 0.285,-0.064L0.285,-0L0.042,-0L0.042,-0.053Z" style="fill:white;fill-rule:nonzero;"/>
                </g>
                <g transform="matrix(166.667,0,0,166.667,516.171,541.57)">
                    <path d="M0.028,-0.053C0.047,-0.053 0.061,-0.057 0.07,-0.066C0.078,-0.074 0.083,-0.086 0.085,-0.101C0.086,-0.116 0.087,-0.134 0.087,-0.153L0.087,-0.585C0.087,-0.596 0.087,-0.609 0.088,-0.623C0.089,-0.636 0.09,-0.65 0.091,-0.665C0.08,-0.664 0.067,-0.664 0.054,-0.663C0.041,-0.662 0.029,-0.662 0.02,-0.661L0.02,-0.726C0.051,-0.726 0.076,-0.728 0.096,-0.731C0.115,-0.734 0.131,-0.737 0.141,-0.742C0.153,-0.747 0.16,-0.751 0.165,-0.755L0.21,-0.755L0.211,-0.143C0.211,-0.132 0.211,-0.119 0.21,-0.105C0.209,-0.09 0.208,-0.075 0.206,-0.061C0.217,-0.062 0.229,-0.063 0.241,-0.064C0.253,-0.064 0.263,-0.064 0.271,-0.064L0.271,-0L0.028,-0L0.028,-0.053Z" style="fill:white;fill-rule:nonzero;"/>
                </g>
            </g>
            <g transform="matrix(1.03947,0,0,1.03947,127.789,52.7522)">
                <g transform="matrix(111.111,0,0,111.111,268.726,407.722)">
                    <path d="M0.64,-0.511C0.67,-0.511 0.694,-0.501 0.713,-0.483C0.731,-0.464 0.744,-0.439 0.751,-0.407C0.759,-0.377 0.761,-0.343 0.758,-0.307C0.755,-0.27 0.748,-0.235 0.735,-0.201C0.724,-0.171 0.711,-0.143 0.694,-0.117C0.677,-0.092 0.657,-0.069 0.635,-0.05C0.613,-0.031 0.589,-0.016 0.564,-0.005C0.538,0.006 0.511,0.011 0.483,0.011C0.466,0.011 0.449,0.007 0.432,-0.002C0.414,-0.01 0.401,-0.025 0.392,-0.047C0.382,-0.069 0.379,-0.1 0.382,-0.14C0.372,-0.112 0.358,-0.086 0.339,-0.064C0.32,-0.041 0.299,-0.022 0.276,-0.009C0.253,0.004 0.231,0.011 0.208,0.011C0.169,0.011 0.142,-0.002 0.127,-0.028C0.112,-0.053 0.104,-0.084 0.104,-0.119C0.104,-0.146 0.105,-0.173 0.108,-0.202C0.111,-0.23 0.114,-0.258 0.117,-0.284C0.12,-0.312 0.123,-0.336 0.126,-0.359C0.129,-0.382 0.13,-0.4 0.13,-0.414C0.13,-0.427 0.129,-0.438 0.126,-0.447C0.123,-0.456 0.115,-0.461 0.103,-0.461C0.092,-0.461 0.081,-0.454 0.068,-0.439C0.055,-0.424 0.043,-0.399 0.033,-0.364L0.005,-0.37C0.007,-0.382 0.011,-0.396 0.017,-0.411C0.023,-0.427 0.031,-0.443 0.042,-0.458C0.052,-0.473 0.065,-0.486 0.08,-0.496C0.095,-0.506 0.112,-0.511 0.132,-0.511C0.15,-0.511 0.165,-0.507 0.177,-0.5C0.189,-0.492 0.198,-0.481 0.204,-0.467C0.21,-0.452 0.213,-0.435 0.213,-0.414C0.213,-0.392 0.212,-0.366 0.209,-0.337C0.206,-0.308 0.203,-0.278 0.2,-0.247C0.196,-0.216 0.193,-0.188 0.19,-0.162C0.187,-0.136 0.186,-0.116 0.186,-0.102C0.186,-0.093 0.187,-0.083 0.19,-0.074C0.192,-0.065 0.196,-0.057 0.203,-0.051C0.209,-0.045 0.218,-0.042 0.229,-0.042C0.246,-0.042 0.263,-0.047 0.28,-0.057C0.297,-0.067 0.312,-0.082 0.327,-0.101C0.342,-0.12 0.355,-0.144 0.366,-0.172C0.377,-0.2 0.386,-0.232 0.393,-0.268C0.4,-0.304 0.403,-0.344 0.403,-0.388C0.403,-0.405 0.403,-0.423 0.402,-0.442C0.401,-0.461 0.399,-0.48 0.396,-0.5L0.482,-0.5C0.483,-0.495 0.484,-0.487 0.485,-0.477C0.486,-0.468 0.486,-0.46 0.486,-0.455C0.486,-0.422 0.484,-0.39 0.481,-0.359C0.478,-0.328 0.474,-0.299 0.469,-0.271C0.465,-0.243 0.461,-0.216 0.458,-0.191C0.455,-0.166 0.453,-0.142 0.453,-0.119C0.453,-0.1 0.456,-0.082 0.463,-0.066C0.47,-0.05 0.484,-0.042 0.507,-0.041C0.526,-0.041 0.545,-0.046 0.564,-0.055C0.583,-0.064 0.601,-0.076 0.618,-0.093C0.634,-0.11 0.65,-0.129 0.663,-0.152C0.676,-0.174 0.687,-0.198 0.696,-0.224C0.7,-0.237 0.704,-0.255 0.707,-0.277C0.71,-0.298 0.712,-0.321 0.711,-0.344C0.71,-0.367 0.706,-0.387 0.699,-0.406C0.692,-0.425 0.68,-0.437 0.663,-0.444C0.659,-0.435 0.653,-0.429 0.646,-0.425C0.639,-0.421 0.631,-0.419 0.622,-0.419C0.613,-0.419 0.604,-0.423 0.595,-0.43C0.585,-0.437 0.58,-0.447 0.58,-0.462C0.58,-0.469 0.582,-0.477 0.586,-0.485C0.589,-0.492 0.596,-0.499 0.605,-0.503C0.614,-0.508 0.625,-0.511 0.64,-0.511Z" style="fill:white;fill-rule:nonzero;"/>
                </g>
                <g transform="matrix(111.111,0,0,111.111,357.726,407.722)">
                    <path d="M0.133,-0.511C0.161,-0.511 0.182,-0.501 0.196,-0.483C0.21,-0.464 0.217,-0.438 0.217,-0.407C0.217,-0.387 0.215,-0.364 0.212,-0.339C0.208,-0.313 0.203,-0.285 0.198,-0.256C0.193,-0.227 0.188,-0.197 0.185,-0.168C0.181,-0.138 0.179,-0.109 0.179,-0.081C0.179,-0.068 0.182,-0.057 0.187,-0.05C0.192,-0.043 0.199,-0.039 0.21,-0.039C0.221,-0.039 0.234,-0.046 0.248,-0.061C0.261,-0.076 0.273,-0.101 0.283,-0.136L0.311,-0.13C0.308,-0.116 0.304,-0.101 0.298,-0.085C0.291,-0.068 0.283,-0.053 0.273,-0.039C0.263,-0.024 0.251,-0.012 0.236,-0.003C0.222,0.006 0.206,0.011 0.187,0.011C0.156,0.011 0.134,0.003 0.119,-0.013C0.104,-0.029 0.097,-0.052 0.097,-0.083C0.097,-0.112 0.099,-0.141 0.103,-0.169C0.107,-0.196 0.112,-0.224 0.117,-0.251C0.122,-0.278 0.126,-0.305 0.13,-0.332C0.134,-0.359 0.136,-0.387 0.136,-0.416C0.136,-0.425 0.134,-0.434 0.131,-0.445C0.127,-0.456 0.119,-0.461 0.108,-0.461C0.097,-0.461 0.085,-0.454 0.071,-0.439C0.057,-0.424 0.045,-0.399 0.035,-0.364L0.007,-0.37C0.009,-0.382 0.013,-0.396 0.019,-0.411C0.025,-0.427 0.033,-0.443 0.043,-0.458C0.054,-0.473 0.066,-0.486 0.081,-0.496C0.096,-0.506 0.113,-0.511 0.133,-0.511ZM0.19,-0.727C0.205,-0.727 0.218,-0.722 0.228,-0.712C0.238,-0.701 0.243,-0.687 0.243,-0.67C0.243,-0.653 0.238,-0.64 0.227,-0.629C0.216,-0.619 0.204,-0.614 0.189,-0.614C0.174,-0.614 0.162,-0.619 0.152,-0.629C0.141,-0.64 0.136,-0.653 0.136,-0.67C0.136,-0.687 0.141,-0.701 0.152,-0.712C0.163,-0.722 0.175,-0.727 0.19,-0.727Z" style="fill:white;fill-rule:nonzero;"/>
                </g>
                <g transform="matrix(111.111,0,0,111.111,393.726,407.722)">
                    <path d="M0.217,-0.641L0.199,-0.5L0.358,-0.5L0.355,-0.462L0.195,-0.46C0.192,-0.432 0.189,-0.403 0.186,-0.374C0.182,-0.344 0.179,-0.314 0.176,-0.285C0.173,-0.256 0.171,-0.228 0.169,-0.201C0.167,-0.173 0.166,-0.149 0.166,-0.127C0.166,-0.114 0.167,-0.101 0.169,-0.087C0.17,-0.074 0.174,-0.063 0.181,-0.054C0.188,-0.045 0.198,-0.04 0.213,-0.04C0.22,-0.04 0.228,-0.041 0.237,-0.044C0.247,-0.047 0.258,-0.053 0.27,-0.063C0.282,-0.073 0.294,-0.089 0.307,-0.11L0.333,-0.093C0.314,-0.059 0.293,-0.033 0.271,-0.016C0.248,0.002 0.221,0.011 0.189,0.011C0.163,0.011 0.142,0.005 0.128,-0.006C0.113,-0.017 0.102,-0.031 0.095,-0.049C0.088,-0.067 0.085,-0.086 0.085,-0.107C0.085,-0.132 0.086,-0.163 0.088,-0.2C0.09,-0.236 0.093,-0.276 0.097,-0.321C0.101,-0.365 0.106,-0.411 0.111,-0.459L0.022,-0.458L0.025,-0.5C0.071,-0.5 0.105,-0.512 0.127,-0.537C0.149,-0.562 0.166,-0.596 0.179,-0.641L0.217,-0.641Z" style="fill:white;fill-rule:nonzero;"/>
                </g>
                <g transform="matrix(111.111,0,0,111.111,434.17,407.722)">
                    <path d="M0.432,0.011C0.401,0.011 0.379,0.003 0.368,-0.014C0.357,-0.031 0.351,-0.054 0.351,-0.085C0.351,-0.104 0.353,-0.126 0.356,-0.152C0.359,-0.177 0.362,-0.204 0.366,-0.233C0.369,-0.262 0.373,-0.291 0.376,-0.32C0.379,-0.349 0.38,-0.377 0.38,-0.403C0.38,-0.411 0.379,-0.42 0.376,-0.429C0.373,-0.438 0.369,-0.447 0.362,-0.454C0.355,-0.461 0.345,-0.464 0.332,-0.464C0.314,-0.464 0.296,-0.456 0.278,-0.44C0.26,-0.423 0.243,-0.401 0.227,-0.373C0.21,-0.345 0.196,-0.313 0.183,-0.278C0.17,-0.242 0.159,-0.205 0.152,-0.167C0.145,-0.128 0.141,-0.09 0.141,-0.053C0.141,-0.043 0.141,-0.034 0.141,-0.025C0.142,-0.017 0.142,-0.009 0.143,-0L0.061,-0C0.06,-0.005 0.06,-0.009 0.06,-0.013L0.06,-0.026C0.06,-0.044 0.061,-0.072 0.063,-0.109C0.065,-0.146 0.068,-0.189 0.071,-0.236C0.074,-0.284 0.078,-0.333 0.083,-0.383C0.087,-0.433 0.091,-0.481 0.096,-0.526C0.101,-0.571 0.105,-0.608 0.11,-0.639C0.113,-0.656 0.115,-0.667 0.116,-0.672C0.117,-0.677 0.118,-0.683 0.119,-0.692L0.049,-0.688L0.053,-0.728C0.082,-0.728 0.105,-0.729 0.122,-0.732C0.138,-0.735 0.15,-0.738 0.159,-0.742C0.168,-0.746 0.175,-0.75 0.18,-0.755L0.209,-0.755C0.206,-0.738 0.203,-0.72 0.2,-0.699C0.197,-0.678 0.193,-0.658 0.19,-0.638C0.187,-0.618 0.184,-0.6 0.182,-0.585C0.18,-0.568 0.178,-0.547 0.174,-0.521C0.172,-0.494 0.169,-0.467 0.166,-0.438C0.163,-0.408 0.16,-0.381 0.158,-0.354C0.155,-0.327 0.153,-0.305 0.152,-0.288L0.155,-0.288C0.178,-0.349 0.2,-0.395 0.222,-0.427C0.244,-0.459 0.266,-0.481 0.288,-0.493C0.309,-0.505 0.331,-0.511 0.352,-0.511C0.392,-0.511 0.42,-0.498 0.437,-0.472C0.454,-0.447 0.462,-0.416 0.462,-0.381C0.462,-0.344 0.46,-0.307 0.455,-0.269C0.45,-0.23 0.446,-0.195 0.441,-0.163C0.436,-0.13 0.434,-0.104 0.434,-0.085C0.434,-0.073 0.436,-0.062 0.439,-0.053C0.442,-0.044 0.449,-0.039 0.461,-0.039C0.472,-0.039 0.485,-0.046 0.499,-0.061C0.512,-0.075 0.524,-0.1 0.534,-0.136L0.559,-0.129C0.557,-0.118 0.553,-0.104 0.547,-0.088C0.541,-0.072 0.533,-0.057 0.523,-0.042C0.512,-0.027 0.5,-0.014 0.485,-0.004C0.469,0.006 0.452,0.011 0.432,0.011Z" style="fill:white;fill-rule:nonzero;"/>
                </g>
            </g>
            <g transform="matrix(0.810422,0,0,0.810422,-227.57,128.515)">
                <g transform="matrix(256.944,0,0,256.944,279.022,306.821)">
                    <path d="M0.39,-0.241C0.39,-0.269 0.386,-0.289 0.377,-0.302C0.368,-0.314 0.357,-0.322 0.342,-0.325C0.327,-0.328 0.31,-0.33 0.292,-0.329L0.266,-0.328L0.266,-0.164C0.266,-0.146 0.266,-0.129 0.265,-0.113C0.264,-0.097 0.263,-0.085 0.262,-0.076L0.396,-0.076C0.416,-0.076 0.435,-0.081 0.454,-0.09C0.473,-0.099 0.488,-0.114 0.5,-0.135C0.512,-0.156 0.518,-0.184 0.518,-0.22L0.583,-0.22L0.578,-0L0.05,-0L0.05,-0.066C0.065,-0.067 0.078,-0.069 0.089,-0.072C0.099,-0.075 0.107,-0.083 0.113,-0.095C0.118,-0.107 0.121,-0.126 0.121,-0.153L0.121,-0.536C0.121,-0.554 0.122,-0.571 0.123,-0.588C0.124,-0.605 0.124,-0.617 0.125,-0.626C0.114,-0.625 0.101,-0.625 0.085,-0.625C0.069,-0.624 0.057,-0.624 0.05,-0.623L0.05,-0.7L0.55,-0.7L0.556,-0.506L0.49,-0.506C0.49,-0.543 0.484,-0.57 0.471,-0.589C0.458,-0.608 0.443,-0.62 0.424,-0.626C0.405,-0.633 0.387,-0.636 0.369,-0.635L0.333,-0.634C0.319,-0.634 0.307,-0.632 0.297,-0.628C0.287,-0.625 0.279,-0.617 0.274,-0.605C0.269,-0.592 0.266,-0.573 0.266,-0.547L0.266,-0.397L0.383,-0.397L0.379,-0.484L0.456,-0.484L0.456,-0.241L0.39,-0.241Z" style="fill:white;fill-rule:nonzero;"/>
                </g>
                <g transform="matrix(256.944,0,0,256.944,438.07,306.821)">
                    <path d="M0.041,-0L0.041,-0.065C0.06,-0.065 0.073,-0.069 0.081,-0.076C0.089,-0.083 0.094,-0.094 0.097,-0.108C0.099,-0.121 0.1,-0.137 0.1,-0.154L0.1,-0.322C0.1,-0.334 0.1,-0.347 0.101,-0.363C0.102,-0.378 0.103,-0.392 0.104,-0.407C0.093,-0.406 0.081,-0.406 0.067,-0.406C0.052,-0.405 0.041,-0.405 0.034,-0.404L0.034,-0.48C0.065,-0.48 0.091,-0.482 0.112,-0.485C0.133,-0.488 0.15,-0.492 0.163,-0.497C0.175,-0.502 0.183,-0.506 0.188,-0.51L0.237,-0.51C0.238,-0.501 0.239,-0.495 0.239,-0.491C0.239,-0.487 0.239,-0.483 0.239,-0.48C0.24,-0.476 0.241,-0.469 0.243,-0.46C0.256,-0.471 0.272,-0.48 0.289,-0.489C0.306,-0.497 0.324,-0.503 0.341,-0.508C0.358,-0.514 0.374,-0.516 0.387,-0.516C0.448,-0.516 0.492,-0.499 0.518,-0.464C0.543,-0.429 0.556,-0.372 0.556,-0.295L0.556,-0.161C0.556,-0.152 0.556,-0.139 0.555,-0.122C0.554,-0.105 0.553,-0.088 0.552,-0.073C0.563,-0.074 0.575,-0.075 0.588,-0.076C0.601,-0.076 0.61,-0.076 0.617,-0.076L0.617,-0L0.355,-0L0.355,-0.065C0.374,-0.065 0.387,-0.069 0.396,-0.076C0.404,-0.083 0.409,-0.094 0.411,-0.108C0.414,-0.121 0.415,-0.137 0.415,-0.154L0.414,-0.296C0.414,-0.339 0.408,-0.372 0.396,-0.393C0.383,-0.413 0.362,-0.424 0.333,-0.424C0.316,-0.424 0.3,-0.42 0.283,-0.413C0.267,-0.406 0.253,-0.397 0.242,-0.387L0.242,-0.161C0.242,-0.152 0.242,-0.139 0.241,-0.122C0.24,-0.105 0.239,-0.088 0.238,-0.073C0.249,-0.074 0.261,-0.075 0.274,-0.076C0.286,-0.076 0.296,-0.076 0.303,-0.076L0.303,-0L0.041,-0Z" style="fill:white;fill-rule:nonzero;"/>
                </g>
                <g transform="matrix(256.944,0,0,256.944,601.487,306.821)">
                    <path d="M0.256,0.271C0.199,0.271 0.153,0.265 0.12,0.252C0.087,0.24 0.063,0.224 0.049,0.204C0.035,0.184 0.028,0.163 0.028,0.14C0.028,0.126 0.031,0.112 0.037,0.098C0.043,0.084 0.053,0.07 0.067,0.057C0.08,0.044 0.099,0.034 0.123,0.025C0.096,0.018 0.077,0.006 0.066,-0.011C0.055,-0.027 0.049,-0.044 0.049,-0.063C0.049,-0.08 0.056,-0.1 0.07,-0.122C0.084,-0.143 0.109,-0.16 0.146,-0.171C0.118,-0.182 0.095,-0.2 0.077,-0.224C0.059,-0.248 0.049,-0.277 0.048,-0.311C0.047,-0.351 0.057,-0.387 0.078,-0.418C0.099,-0.449 0.127,-0.473 0.162,-0.49C0.197,-0.507 0.233,-0.516 0.271,-0.516C0.288,-0.516 0.308,-0.514 0.331,-0.509C0.354,-0.504 0.373,-0.496 0.39,-0.485C0.397,-0.506 0.407,-0.525 0.419,-0.544C0.43,-0.562 0.444,-0.577 0.461,-0.589C0.478,-0.6 0.496,-0.606 0.517,-0.606C0.54,-0.606 0.557,-0.6 0.569,-0.589C0.58,-0.577 0.586,-0.561 0.586,-0.542C0.586,-0.534 0.584,-0.525 0.581,-0.516C0.577,-0.506 0.571,-0.498 0.562,-0.491C0.553,-0.484 0.54,-0.481 0.524,-0.481C0.514,-0.481 0.504,-0.485 0.494,-0.493C0.484,-0.5 0.478,-0.509 0.476,-0.52C0.467,-0.517 0.459,-0.509 0.45,-0.494C0.441,-0.479 0.436,-0.466 0.435,-0.455C0.454,-0.438 0.469,-0.419 0.479,-0.397C0.489,-0.375 0.494,-0.351 0.494,-0.326C0.494,-0.287 0.483,-0.253 0.462,-0.224C0.44,-0.194 0.412,-0.171 0.378,-0.154C0.343,-0.137 0.306,-0.128 0.267,-0.128C0.258,-0.128 0.249,-0.129 0.238,-0.13C0.227,-0.131 0.217,-0.131 0.207,-0.131C0.192,-0.131 0.18,-0.128 0.17,-0.123C0.16,-0.118 0.155,-0.11 0.155,-0.101C0.155,-0.088 0.165,-0.08 0.184,-0.075C0.203,-0.07 0.236,-0.067 0.283,-0.064C0.334,-0.061 0.379,-0.055 0.418,-0.045C0.456,-0.034 0.486,-0.018 0.507,0.004C0.528,0.026 0.539,0.056 0.539,0.095C0.539,0.124 0.531,0.149 0.514,0.17C0.497,0.192 0.475,0.21 0.448,0.225C0.42,0.24 0.389,0.252 0.356,0.259C0.323,0.267 0.289,0.271 0.256,0.271ZM0.285,0.202C0.332,0.202 0.368,0.193 0.393,0.176C0.417,0.159 0.429,0.141 0.429,0.122C0.429,0.108 0.424,0.096 0.413,0.087C0.402,0.078 0.387,0.071 0.366,0.066C0.344,0.061 0.318,0.057 0.285,0.056C0.27,0.055 0.253,0.054 0.234,0.053C0.215,0.052 0.198,0.051 0.183,0.048C0.173,0.056 0.165,0.066 0.16,0.078C0.155,0.09 0.152,0.102 0.151,0.113C0.15,0.14 0.161,0.161 0.186,0.177C0.21,0.194 0.243,0.202 0.285,0.202ZM0.271,-0.195C0.289,-0.195 0.304,-0.201 0.317,-0.212C0.329,-0.223 0.338,-0.238 0.344,-0.255C0.351,-0.272 0.354,-0.29 0.354,-0.308C0.354,-0.331 0.351,-0.354 0.345,-0.376C0.339,-0.397 0.33,-0.415 0.318,-0.429C0.305,-0.442 0.289,-0.449 0.27,-0.449C0.243,-0.449 0.223,-0.437 0.208,-0.413C0.193,-0.389 0.186,-0.362 0.186,-0.331C0.186,-0.308 0.189,-0.285 0.196,-0.265C0.203,-0.244 0.212,-0.227 0.225,-0.214C0.238,-0.201 0.253,-0.195 0.271,-0.195Z" style="fill:white;fill-rule:nonzero;"/>
                </g>
                <g transform="matrix(256.944,0,0,256.944,743.064,306.821)">
                    <path d="M0.025,-0.065C0.044,-0.065 0.057,-0.069 0.066,-0.076C0.074,-0.083 0.079,-0.094 0.081,-0.108C0.083,-0.121 0.084,-0.137 0.084,-0.154L0.084,-0.565C0.084,-0.577 0.084,-0.591 0.085,-0.607C0.086,-0.622 0.087,-0.637 0.088,-0.652C0.077,-0.651 0.065,-0.651 0.051,-0.651C0.036,-0.65 0.025,-0.65 0.018,-0.649L0.018,-0.725C0.049,-0.725 0.076,-0.727 0.097,-0.73C0.117,-0.733 0.134,-0.737 0.147,-0.742C0.159,-0.747 0.167,-0.751 0.172,-0.755L0.226,-0.755L0.226,-0.161C0.226,-0.152 0.226,-0.139 0.225,-0.122C0.224,-0.105 0.223,-0.088 0.222,-0.073C0.233,-0.074 0.245,-0.075 0.258,-0.076C0.271,-0.076 0.28,-0.076 0.287,-0.076L0.287,-0L0.025,-0L0.025,-0.065Z" style="fill:white;fill-rule:nonzero;"/>
                </g>
                <g transform="matrix(256.944,0,0,256.944,823.23,306.821)">
                    <path d="M0.041,-0.065C0.06,-0.065 0.073,-0.069 0.081,-0.076C0.089,-0.083 0.094,-0.094 0.097,-0.108C0.099,-0.121 0.1,-0.137 0.1,-0.154L0.1,-0.32C0.1,-0.332 0.1,-0.346 0.101,-0.362C0.102,-0.377 0.103,-0.392 0.104,-0.407C0.093,-0.406 0.081,-0.406 0.067,-0.406C0.052,-0.405 0.041,-0.405 0.034,-0.404L0.034,-0.48C0.065,-0.48 0.091,-0.482 0.112,-0.485C0.133,-0.488 0.15,-0.492 0.163,-0.497C0.175,-0.502 0.183,-0.506 0.188,-0.51L0.242,-0.51L0.242,-0.161C0.242,-0.152 0.242,-0.139 0.241,-0.122C0.24,-0.105 0.239,-0.088 0.238,-0.073C0.249,-0.074 0.261,-0.075 0.274,-0.076C0.286,-0.076 0.296,-0.076 0.303,-0.076L0.303,-0L0.041,-0L0.041,-0.065ZM0.166,-0.589C0.143,-0.589 0.125,-0.597 0.11,-0.613C0.095,-0.629 0.088,-0.648 0.088,-0.671C0.088,-0.694 0.096,-0.713 0.111,-0.729C0.126,-0.745 0.144,-0.753 0.165,-0.753C0.186,-0.753 0.204,-0.745 0.219,-0.729C0.233,-0.713 0.24,-0.694 0.24,-0.671C0.24,-0.648 0.233,-0.629 0.22,-0.613C0.207,-0.597 0.189,-0.589 0.166,-0.589Z" style="fill:white;fill-rule:nonzero;"/>
                </g>
                <g transform="matrix(256.944,0,0,256.944,907.251,306.821)">
                    <path d="M0.271,0.016C0.242,0.016 0.214,0.012 0.187,0.005C0.16,-0.002 0.138,-0.012 0.123,-0.023L0.125,0.007L0.049,0.007L0.045,-0.165L0.11,-0.165C0.112,-0.145 0.12,-0.127 0.134,-0.11C0.148,-0.093 0.166,-0.08 0.189,-0.07C0.212,-0.061 0.237,-0.056 0.265,-0.056C0.276,-0.056 0.287,-0.058 0.298,-0.061C0.308,-0.064 0.317,-0.07 0.324,-0.078C0.331,-0.085 0.334,-0.095 0.334,-0.106C0.334,-0.119 0.33,-0.129 0.321,-0.137C0.312,-0.145 0.299,-0.153 0.281,-0.16C0.265,-0.167 0.243,-0.176 0.218,-0.185C0.197,-0.193 0.177,-0.201 0.156,-0.21C0.135,-0.219 0.115,-0.229 0.098,-0.242C0.08,-0.254 0.066,-0.269 0.055,-0.288C0.044,-0.306 0.039,-0.328 0.039,-0.355C0.039,-0.374 0.043,-0.394 0.05,-0.412C0.057,-0.432 0.069,-0.449 0.084,-0.465C0.099,-0.48 0.119,-0.493 0.142,-0.502C0.166,-0.511 0.194,-0.516 0.227,-0.516C0.245,-0.516 0.266,-0.513 0.289,-0.507C0.312,-0.502 0.331,-0.493 0.347,-0.482L0.347,-0.511L0.423,-0.511L0.423,-0.334L0.358,-0.334C0.354,-0.357 0.346,-0.377 0.334,-0.394C0.321,-0.411 0.305,-0.424 0.286,-0.433C0.267,-0.442 0.245,-0.446 0.221,-0.446C0.204,-0.446 0.189,-0.442 0.175,-0.434C0.162,-0.426 0.155,-0.412 0.155,-0.393C0.155,-0.378 0.16,-0.366 0.171,-0.357C0.182,-0.347 0.196,-0.34 0.215,-0.334C0.234,-0.328 0.254,-0.321 0.277,-0.313C0.311,-0.302 0.341,-0.288 0.368,-0.273C0.394,-0.258 0.415,-0.239 0.43,-0.218C0.445,-0.196 0.453,-0.169 0.453,-0.138C0.453,-0.103 0.444,-0.075 0.427,-0.052C0.41,-0.029 0.387,-0.012 0.36,-0.001C0.332,0.01 0.302,0.016 0.271,0.016Z" style="fill:white;fill-rule:nonzero;"/>
                </g>
                <g transform="matrix(256.944,0,0,256.944,1031.87,306.821)">
                    <path d="M0.339,-0.065C0.358,-0.065 0.371,-0.069 0.38,-0.076C0.388,-0.083 0.393,-0.094 0.396,-0.108C0.398,-0.121 0.399,-0.137 0.399,-0.154L0.398,-0.296C0.398,-0.339 0.392,-0.372 0.379,-0.393C0.366,-0.413 0.345,-0.424 0.317,-0.424C0.3,-0.424 0.284,-0.42 0.268,-0.413C0.251,-0.406 0.237,-0.397 0.226,-0.387L0.226,-0.161C0.226,-0.152 0.226,-0.139 0.225,-0.122C0.224,-0.105 0.223,-0.088 0.222,-0.073C0.233,-0.074 0.245,-0.075 0.258,-0.076C0.271,-0.076 0.28,-0.076 0.287,-0.076L0.287,-0L0.025,-0L0.025,-0.065C0.044,-0.065 0.057,-0.069 0.066,-0.076C0.074,-0.083 0.079,-0.094 0.081,-0.108C0.083,-0.121 0.084,-0.137 0.084,-0.154L0.084,-0.565C0.084,-0.577 0.084,-0.591 0.085,-0.607C0.086,-0.622 0.087,-0.637 0.088,-0.652C0.077,-0.651 0.065,-0.651 0.051,-0.651C0.036,-0.65 0.025,-0.65 0.018,-0.649L0.018,-0.725C0.049,-0.725 0.076,-0.727 0.097,-0.73C0.117,-0.733 0.134,-0.737 0.147,-0.742C0.159,-0.747 0.167,-0.751 0.172,-0.755L0.226,-0.755L0.226,-0.46C0.239,-0.471 0.255,-0.48 0.272,-0.489C0.289,-0.497 0.307,-0.503 0.325,-0.508C0.343,-0.514 0.359,-0.516 0.372,-0.516C0.433,-0.516 0.477,-0.499 0.502,-0.464C0.527,-0.429 0.54,-0.372 0.541,-0.295L0.541,-0.161C0.541,-0.152 0.541,-0.139 0.54,-0.122C0.539,-0.105 0.538,-0.088 0.537,-0.073C0.548,-0.074 0.559,-0.075 0.572,-0.076C0.585,-0.076 0.595,-0.076 0.602,-0.076L0.602,-0L0.339,-0L0.339,-0.065Z" style="fill:white;fill-rule:nonzero;"/>
                </g>
            </g>
        </g>
    </g>
</svg>
